<svg aria-roledescription="er" role="graphics-document document" viewBox="0 0 844.7023315429688 921" style="max-width: 844.7023315429688px;" xmlns="http://www.w3.org/2000/svg" width="100%" id="mermaidSvgChart"><style>#mermaidSvgChart{font-family:"trebuchet ms",verdana,arial,sans-serif;font-size:16px;fill:#000000;}#mermaidSvgChart .error-icon{fill:#552222;}#mermaidSvgChart .error-text{fill:#552222;stroke:#552222;}#mermaidSvgChart .edge-thickness-normal{stroke-width:2px;}#mermaidSvgChart .edge-thickness-thick{stroke-width:3.5px;}#mermaidSvgChart .edge-pattern-solid{stroke-dasharray:0;}#mermaidSvgChart .edge-pattern-dashed{stroke-dasharray:3;}#mermaidSvgChart .edge-pattern-dotted{stroke-dasharray:2;}#mermaidSvgChart .marker{fill:#666;stroke:#666;}#mermaidSvgChart .marker.cross{stroke:#666;}#mermaidSvgChart svg{font-family:"trebuchet ms",verdana,arial,sans-serif;font-size:16px;}#mermaidSvgChart .entityBox{fill:#eee;stroke:#999;}#mermaidSvgChart .attributeBoxOdd{fill:#ffffff;stroke:#999;}#mermaidSvgChart .attributeBoxEven{fill:#f2f2f2;stroke:#999;}#mermaidSvgChart .relationshipLabelBox{fill:hsl(-160, 0%, 93.3333333333%);opacity:0.7;background-color:hsl(-160, 0%, 93.3333333333%);}#mermaidSvgChart .relationshipLabelBox rect{opacity:0.5;}#mermaidSvgChart .relationshipLine{stroke:#666;}#mermaidSvgChart .entityTitleText{text-anchor:middle;font-size:18px;fill:#000000;}#mermaidSvgChart :root{--mermaid-font-family:"trebuchet ms",verdana,arial,sans-serif;}</style><g></g><defs><marker orient="auto" markerHeight="18" markerWidth="18" refY="9" refX="0" id="ONLY_ONE_START"><path d="M9,0 L9,18 M15,0 L15,18" fill="none" stroke="gray"></path></marker></defs><defs><marker orient="auto" markerHeight="18" markerWidth="18" refY="9" refX="18" id="ONLY_ONE_END"><path d="M3,0 L3,18 M9,0 L9,18" fill="none" stroke="gray"></path></marker></defs><defs><marker orient="auto" markerHeight="18" markerWidth="30" refY="9" refX="0" id="ZERO_OR_ONE_START"><circle r="6" cy="9" cx="21" fill="white" stroke="gray"></circle><path d="M9,0 L9,18" fill="none" stroke="gray"></path></marker></defs><defs><marker orient="auto" markerHeight="18" markerWidth="30" refY="9" refX="30" id="ZERO_OR_ONE_END"><circle r="6" cy="9" cx="9" fill="white" stroke="gray"></circle><path d="M21,0 L21,18" fill="none" stroke="gray"></path></marker></defs><defs><marker orient="auto" markerHeight="36" markerWidth="45" refY="18" refX="18" id="ONE_OR_MORE_START"><path d="M0,18 Q 18,0 36,18 Q 18,36 0,18 M42,9 L42,27" fill="none" stroke="gray"></path></marker></defs><defs><marker orient="auto" markerHeight="36" markerWidth="45" refY="18" refX="27" id="ONE_OR_MORE_END"><path d="M3,9 L3,27 M9,18 Q27,0 45,18 Q27,36 9,18" fill="none" stroke="gray"></path></marker></defs><defs><marker orient="auto" markerHeight="36" markerWidth="57" refY="18" refX="18" id="ZERO_OR_MORE_START"><circle r="6" cy="18" cx="48" fill="white" stroke="gray"></circle><path d="M0,18 Q18,0 36,18 Q18,36 0,18" fill="none" stroke="gray"></path></marker></defs><defs><marker orient="auto" markerHeight="36" markerWidth="57" refY="18" refX="39" id="ZERO_OR_MORE_END"><circle r="6" cy="18" cx="9" fill="white" stroke="gray"></circle><path d="M21,18 Q39,0 57,18 Q39,36 21,18" fill="none" stroke="gray"></path></marker></defs><path style="stroke: gray; fill: none;" marker-start="url(#ONLY_ONE_START)" marker-end="url(#ONE_OR_MORE_END)" d="M451.148,672L451.148,680.333C451.148,688.667,451.148,705.333,461.617,722C472.086,738.667,493.024,755.333,503.493,763.667L513.962,772" class="er relationshipLine"></path><path style="stroke: gray; fill: none;" marker-start="url(#ONLY_ONE_START)" marker-end="url(#ONE_OR_MORE_END)" d="M451.148,672L451.148,680.333C451.148,688.667,451.148,705.333,461.617,722C472.086,738.667,493.024,755.333,503.493,763.667L513.962,772" class="er relationshipLine"></path><path style="stroke: gray; fill: none;" marker-start="url(#ONLY_ONE_START)" marker-end="url(#ONE_OR_MORE_END)" d="M128.061,212L128.061,220.333C128.061,228.667,128.061,245.333,162.894,278.463C197.726,311.593,267.39,361.186,302.222,385.982L337.055,410.779" class="er relationshipLine"></path><path style="stroke: gray; fill: none;" marker-start="url(#ONLY_ONE_START)" marker-end="url(#ONE_OR_MORE_END)" d="M437.946,180.5L437.946,194.083C437.946,207.667,437.946,234.833,438.424,256.75C438.903,278.667,439.859,295.333,440.338,303.667L440.816,312" class="er relationshipLine"></path><path style="stroke: gray; fill: none;" marker-start="url(#ONLY_ONE_START)" marker-end="url(#ONE_OR_MORE_END)" d="M697.378,180.5L688.647,194.083C679.916,207.667,662.454,234.833,640.432,264.188C618.409,293.542,591.825,325.084,578.534,340.855L565.242,356.626" class="er relationshipLine"></path><path style="stroke: gray; fill: none;" marker-start="url(#ONLY_ONE_START)" marker-end="url(#ONE_OR_MORE_END)" d="M760.926,180.5L765.578,194.083C770.23,207.667,779.533,234.833,784.185,286.75C788.837,338.667,788.837,415.333,788.837,492C788.837,568.667,788.837,645.333,774.288,692.26C759.74,739.187,730.643,756.374,716.094,764.968L701.545,773.561" class="er relationshipLine"></path><g transform="translate(488.4396438598633,772 )" id="entity-dboUsers-6df9b671-cf2d-5718-952e-8960f91cdd93"><rect height="129" width="213.10585021972656" y="0" x="0" class="er entityBox"></rect><text style="dominant-baseline: middle; text-anchor: middle; font-size: 12px;" transform="translate(106.55292510986328,12)" y="0" x="0" id="text-entity-dboUsers-6df9b671-cf2d-5718-952e-8960f91cdd93" class="er entityLabel">dbo.Users</text><rect height="21" width="79.78691101074219" y="24" x="0" class="er attributeBoxOdd"></rect><text style="dominant-baseline: middle; font-size: 10.2px;" transform="translate(5,34.5)" y="0" x="0" id="text-entity-dboUsers-6df9b671-cf2d-5718-952e-8960f91cdd93-attr-1-type" class="er entityLabel">uniqueidentifier</text><rect height="21" width="108.515625" y="24" x="79.78691101074219" class="er attributeBoxOdd"></rect><text style="dominant-baseline: middle; font-size: 10.2px;" transform="translate(84.78691101074219,34.5)" y="0" x="0" id="text-entity-dboUsers-6df9b671-cf2d-5718-952e-8960f91cdd93-attr-1-name" class="er entityLabel">User_ID</text><rect height="21" width="24.803314208984375" y="24" x="188.3025360107422" class="er attributeBoxOdd"></rect><text style="dominant-baseline: middle; font-size: 10.2px;" transform="translate(193.3025360107422,34.5)" y="0" x="0" id="text-entity-dboUsers-6df9b671-cf2d-5718-952e-8960f91cdd93-attr-1-comment" class="er entityLabel">PK</text><rect height="21" width="79.78691101074219" y="45" x="0" class="er attributeBoxEven"></rect><text style="dominant-baseline: middle; font-size: 10.2px;" transform="translate(5,55.5)" y="0" x="0" id="text-entity-dboUsers-6df9b671-cf2d-5718-952e-8960f91cdd93-attr-2-type" class="er entityLabel">uniqueidentifier</text><rect height="21" width="108.515625" y="45" x="79.78691101074219" class="er attributeBoxEven"></rect><text style="dominant-baseline: middle; font-size: 10.2px;" transform="translate(84.78691101074219,55.5)" y="0" x="0" id="text-entity-dboUsers-6df9b671-cf2d-5718-952e-8960f91cdd93-attr-2-name" class="er entityLabel">Azure_AD_Object_ID</text><rect height="21" width="24.803314208984375" y="45" x="188.3025360107422" class="er attributeBoxEven"></rect><text style="dominant-baseline: middle; font-size: 10.2px;" transform="translate(193.3025360107422,55.5)" y="0" x="0" id="text-entity-dboUsers-6df9b671-cf2d-5718-952e-8960f91cdd93-attr-2-comment" class="er entityLabel"></text><rect height="21" width="79.78691101074219" y="66" x="0" class="er attributeBoxOdd"></rect><text style="dominant-baseline: middle; font-size: 10.2px;" transform="translate(5,76.5)" y="0" x="0" id="text-entity-dboUsers-6df9b671-cf2d-5718-952e-8960f91cdd93-attr-3-type" class="er entityLabel">nvarchar(255)</text><rect height="21" width="108.515625" y="66" x="79.78691101074219" class="er attributeBoxOdd"></rect><text style="dominant-baseline: middle; font-size: 10.2px;" transform="translate(84.78691101074219,76.5)" y="0" x="0" id="text-entity-dboUsers-6df9b671-cf2d-5718-952e-8960f91cdd93-attr-3-name" class="er entityLabel">FullName</text><rect height="21" width="24.803314208984375" y="66" x="188.3025360107422" class="er attributeBoxOdd"></rect><text style="dominant-baseline: middle; font-size: 10.2px;" transform="translate(193.3025360107422,76.5)" y="0" x="0" id="text-entity-dboUsers-6df9b671-cf2d-5718-952e-8960f91cdd93-attr-3-comment" class="er entityLabel"></text><rect height="21" width="79.78691101074219" y="87" x="0" class="er attributeBoxEven"></rect><text style="dominant-baseline: middle; font-size: 10.2px;" transform="translate(5,97.5)" y="0" x="0" id="text-entity-dboUsers-6df9b671-cf2d-5718-952e-8960f91cdd93-attr-4-type" class="er entityLabel">nvarchar(255)</text><rect height="21" width="108.515625" y="87" x="79.78691101074219" class="er attributeBoxEven"></rect><text style="dominant-baseline: middle; font-size: 10.2px;" transform="translate(84.78691101074219,97.5)" y="0" x="0" id="text-entity-dboUsers-6df9b671-cf2d-5718-952e-8960f91cdd93-attr-4-name" class="er entityLabel">Role</text><rect height="21" width="24.803314208984375" y="87" x="188.3025360107422" class="er attributeBoxEven"></rect><text style="dominant-baseline: middle; font-size: 10.2px;" transform="translate(193.3025360107422,97.5)" y="0" x="0" id="text-entity-dboUsers-6df9b671-cf2d-5718-952e-8960f91cdd93-attr-4-comment" class="er entityLabel"></text><rect height="21" width="79.78691101074219" y="108" x="0" class="er attributeBoxOdd"></rect><text style="dominant-baseline: middle; font-size: 10.2px;" transform="translate(5,118.5)" y="0" x="0" id="text-entity-dboUsers-6df9b671-cf2d-5718-952e-8960f91cdd93-attr-5-type" class="er entityLabel">nvarchar(255)</text><rect height="21" width="108.515625" y="108" x="79.78691101074219" class="er attributeBoxOdd"></rect><text style="dominant-baseline: middle; font-size: 10.2px;" transform="translate(84.78691101074219,118.5)" y="0" x="0" id="text-entity-dboUsers-6df9b671-cf2d-5718-952e-8960f91cdd93-attr-5-name" class="er entityLabel">Email</text><rect height="21" width="24.803314208984375" y="108" x="188.3025360107422" class="er attributeBoxOdd"></rect><text style="dominant-baseline: middle; font-size: 10.2px;" transform="translate(193.3025360107422,118.5)" y="0" x="0" id="text-entity-dboUsers-6df9b671-cf2d-5718-952e-8960f91cdd93-attr-5-comment" class="er entityLabel"></text></g><g transform="translate(337.0547218322754,312 )" id="entity-dboRequest-657aff0b-e7f1-57d0-ab3d-651704502ecf"><rect height="360" width="228.18701171875" y="0" x="0" class="er entityBox"></rect><text style="dominant-baseline: middle; text-anchor: middle; font-size: 12px;" transform="translate(114.093505859375,12)" y="0" x="0" id="text-entity-dboRequest-657aff0b-e7f1-57d0-ab3d-651704502ecf" class="er entityLabel">dbo.Request</text><rect height="21" width="91.56460571289062" y="24" x="0" class="er attributeBoxOdd"></rect><text style="dominant-baseline: middle; font-size: 10.2px;" transform="translate(5,34.5)" y="0" x="0" id="text-entity-dboRequest-657aff0b-e7f1-57d0-ab3d-651704502ecf-attr-1-type" class="er entityLabel">int</text><rect height="21" width="111.819091796875" y="24" x="91.56460571289062" class="er attributeBoxOdd"></rect><text style="dominant-baseline: middle; font-size: 10.2px;" transform="translate(96.56460571289062,34.5)" y="0" x="0" id="text-entity-dboRequest-657aff0b-e7f1-57d0-ab3d-651704502ecf-attr-1-name" class="er entityLabel">Request_ID</text><rect height="21" width="24.803314208984375" y="24" x="203.38369750976562" class="er attributeBoxOdd"></rect><text style="dominant-baseline: middle; font-size: 10.2px;" transform="translate(208.38369750976562,34.5)" y="0" x="0" id="text-entity-dboRequest-657aff0b-e7f1-57d0-ab3d-651704502ecf-attr-1-comment" class="er entityLabel">PK</text><rect height="21" width="91.56460571289062" y="45" x="0" class="er attributeBoxEven"></rect><text style="dominant-baseline: middle; font-size: 10.2px;" transform="translate(5,55.5)" y="0" x="0" id="text-entity-dboRequest-657aff0b-e7f1-57d0-ab3d-651704502ecf-attr-2-type" class="er entityLabel">uniqueidentifier</text><rect height="21" width="111.819091796875" y="45" x="91.56460571289062" class="er attributeBoxEven"></rect><text style="dominant-baseline: middle; font-size: 10.2px;" transform="translate(96.56460571289062,55.5)" y="0" x="0" id="text-entity-dboRequest-657aff0b-e7f1-57d0-ab3d-651704502ecf-attr-2-name" class="er entityLabel">Requestor_ID</text><rect height="21" width="24.803314208984375" y="45" x="203.38369750976562" class="er attributeBoxEven"></rect><text style="dominant-baseline: middle; font-size: 10.2px;" transform="translate(208.38369750976562,55.5)" y="0" x="0" id="text-entity-dboRequest-657aff0b-e7f1-57d0-ab3d-651704502ecf-attr-2-comment" class="er entityLabel">FK</text><rect height="21" width="91.56460571289062" y="66" x="0" class="er attributeBoxOdd"></rect><text style="dominant-baseline: middle; font-size: 10.2px;" transform="translate(5,76.5)" y="0" x="0" id="text-entity-dboRequest-657aff0b-e7f1-57d0-ab3d-651704502ecf-attr-3-type" class="er entityLabel">nvarchar(255)</text><rect height="21" width="111.819091796875" y="66" x="91.56460571289062" class="er attributeBoxOdd"></rect><text style="dominant-baseline: middle; font-size: 10.2px;" transform="translate(96.56460571289062,76.5)" y="0" x="0" id="text-entity-dboRequest-657aff0b-e7f1-57d0-ab3d-651704502ecf-attr-3-name" class="er entityLabel">Request_Title</text><rect height="21" width="24.803314208984375" y="66" x="203.38369750976562" class="er attributeBoxOdd"></rect><text style="dominant-baseline: middle; font-size: 10.2px;" transform="translate(208.38369750976562,76.5)" y="0" x="0" id="text-entity-dboRequest-657aff0b-e7f1-57d0-ab3d-651704502ecf-attr-3-comment" class="er entityLabel"></text><rect height="21" width="91.56460571289062" y="87" x="0" class="er attributeBoxEven"></rect><text style="dominant-baseline: middle; font-size: 10.2px;" transform="translate(5,97.5)" y="0" x="0" id="text-entity-dboRequest-657aff0b-e7f1-57d0-ab3d-651704502ecf-attr-4-type" class="er entityLabel">text(2147483647)</text><rect height="21" width="111.819091796875" y="87" x="91.56460571289062" class="er attributeBoxEven"></rect><text style="dominant-baseline: middle; font-size: 10.2px;" transform="translate(96.56460571289062,97.5)" y="0" x="0" id="text-entity-dboRequest-657aff0b-e7f1-57d0-ab3d-651704502ecf-attr-4-name" class="er entityLabel">Request_Justification</text><rect height="21" width="24.803314208984375" y="87" x="203.38369750976562" class="er attributeBoxEven"></rect><text style="dominant-baseline: middle; font-size: 10.2px;" transform="translate(208.38369750976562,97.5)" y="0" x="0" id="text-entity-dboRequest-657aff0b-e7f1-57d0-ab3d-651704502ecf-attr-4-comment" class="er entityLabel"></text><rect height="21" width="91.56460571289062" y="108" x="0" class="er attributeBoxOdd"></rect><text style="dominant-baseline: middle; font-size: 10.2px;" transform="translate(5,118.5)" y="0" x="0" id="text-entity-dboRequest-657aff0b-e7f1-57d0-ab3d-651704502ecf-attr-5-type" class="er entityLabel">int</text><rect height="21" width="111.819091796875" y="108" x="91.56460571289062" class="er attributeBoxOdd"></rect><text style="dominant-baseline: middle; font-size: 10.2px;" transform="translate(96.56460571289062,118.5)" y="0" x="0" id="text-entity-dboRequest-657aff0b-e7f1-57d0-ab3d-651704502ecf-attr-5-name" class="er entityLabel">Change_Classification</text><rect height="21" width="24.803314208984375" y="108" x="203.38369750976562" class="er attributeBoxOdd"></rect><text style="dominant-baseline: middle; font-size: 10.2px;" transform="translate(208.38369750976562,118.5)" y="0" x="0" id="text-entity-dboRequest-657aff0b-e7f1-57d0-ab3d-651704502ecf-attr-5-comment" class="er entityLabel"></text><rect height="21" width="91.56460571289062" y="129" x="0" class="er attributeBoxEven"></rect><text style="dominant-baseline: middle; font-size: 10.2px;" transform="translate(5,139.5)" y="0" x="0" id="text-entity-dboRequest-657aff0b-e7f1-57d0-ab3d-651704502ecf-attr-6-type" class="er entityLabel">int</text><rect height="21" width="111.819091796875" y="129" x="91.56460571289062" class="er attributeBoxEven"></rect><text style="dominant-baseline: middle; font-size: 10.2px;" transform="translate(96.56460571289062,139.5)" y="0" x="0" id="text-entity-dboRequest-657aff0b-e7f1-57d0-ab3d-651704502ecf-attr-6-name" class="er entityLabel">Change_Reason</text><rect height="21" width="24.803314208984375" y="129" x="203.38369750976562" class="er attributeBoxEven"></rect><text style="dominant-baseline: middle; font-size: 10.2px;" transform="translate(208.38369750976562,139.5)" y="0" x="0" id="text-entity-dboRequest-657aff0b-e7f1-57d0-ab3d-651704502ecf-attr-6-comment" class="er entityLabel"></text><rect height="21" width="91.56460571289062" y="150" x="0" class="er attributeBoxOdd"></rect><text style="dominant-baseline: middle; font-size: 10.2px;" transform="translate(5,160.5)" y="0" x="0" id="text-entity-dboRequest-657aff0b-e7f1-57d0-ab3d-651704502ecf-attr-7-type" class="er entityLabel">int</text><rect height="21" width="111.819091796875" y="150" x="91.56460571289062" class="er attributeBoxOdd"></rect><text style="dominant-baseline: middle; font-size: 10.2px;" transform="translate(96.56460571289062,160.5)" y="0" x="0" id="text-entity-dboRequest-657aff0b-e7f1-57d0-ab3d-651704502ecf-attr-7-name" class="er entityLabel">Impact_Level</text><rect height="21" width="24.803314208984375" y="150" x="203.38369750976562" class="er attributeBoxOdd"></rect><text style="dominant-baseline: middle; font-size: 10.2px;" transform="translate(208.38369750976562,160.5)" y="0" x="0" id="text-entity-dboRequest-657aff0b-e7f1-57d0-ab3d-651704502ecf-attr-7-comment" class="er entityLabel"></text><rect height="21" width="91.56460571289062" y="171" x="0" class="er attributeBoxEven"></rect><text style="dominant-baseline: middle; font-size: 10.2px;" transform="translate(5,181.5)" y="0" x="0" id="text-entity-dboRequest-657aff0b-e7f1-57d0-ab3d-651704502ecf-attr-8-type" class="er entityLabel">int</text><rect height="21" width="111.819091796875" y="171" x="91.56460571289062" class="er attributeBoxEven"></rect><text style="dominant-baseline: middle; font-size: 10.2px;" transform="translate(96.56460571289062,181.5)" y="0" x="0" id="text-entity-dboRequest-657aff0b-e7f1-57d0-ab3d-651704502ecf-attr-8-name" class="er entityLabel">Affected_Services</text><rect height="21" width="24.803314208984375" y="171" x="203.38369750976562" class="er attributeBoxEven"></rect><text style="dominant-baseline: middle; font-size: 10.2px;" transform="translate(208.38369750976562,181.5)" y="0" x="0" id="text-entity-dboRequest-657aff0b-e7f1-57d0-ab3d-651704502ecf-attr-8-comment" class="er entityLabel"></text><rect height="21" width="91.56460571289062" y="192" x="0" class="er attributeBoxOdd"></rect><text style="dominant-baseline: middle; font-size: 10.2px;" transform="translate(5,202.5)" y="0" x="0" id="text-entity-dboRequest-657aff0b-e7f1-57d0-ab3d-651704502ecf-attr-9-type" class="er entityLabel">text(2147483647)</text><rect height="21" width="111.819091796875" y="192" x="91.56460571289062" class="er attributeBoxOdd"></rect><text style="dominant-baseline: middle; font-size: 10.2px;" transform="translate(96.56460571289062,202.5)" y="0" x="0" id="text-entity-dboRequest-657aff0b-e7f1-57d0-ab3d-651704502ecf-attr-9-name" class="er entityLabel">Rollback_Plan</text><rect height="21" width="24.803314208984375" y="192" x="203.38369750976562" class="er attributeBoxOdd"></rect><text style="dominant-baseline: middle; font-size: 10.2px;" transform="translate(208.38369750976562,202.5)" y="0" x="0" id="text-entity-dboRequest-657aff0b-e7f1-57d0-ab3d-651704502ecf-attr-9-comment" class="er entityLabel"></text><rect height="21" width="91.56460571289062" y="213" x="0" class="er attributeBoxEven"></rect><text style="dominant-baseline: middle; font-size: 10.2px;" transform="translate(5,223.5)" y="0" x="0" id="text-entity-dboRequest-657aff0b-e7f1-57d0-ab3d-651704502ecf-attr-10-type" class="er entityLabel">text(2147483647)</text><rect height="21" width="111.819091796875" y="213" x="91.56460571289062" class="er attributeBoxEven"></rect><text style="dominant-baseline: middle; font-size: 10.2px;" transform="translate(96.56460571289062,223.5)" y="0" x="0" id="text-entity-dboRequest-657aff0b-e7f1-57d0-ab3d-651704502ecf-attr-10-name" class="er entityLabel">Test_Plan</text><rect height="21" width="24.803314208984375" y="213" x="203.38369750976562" class="er attributeBoxEven"></rect><text style="dominant-baseline: middle; font-size: 10.2px;" transform="translate(208.38369750976562,223.5)" y="0" x="0" id="text-entity-dboRequest-657aff0b-e7f1-57d0-ab3d-651704502ecf-attr-10-comment" class="er entityLabel"></text><rect height="21" width="91.56460571289062" y="234" x="0" class="er attributeBoxOdd"></rect><text style="dominant-baseline: middle; font-size: 10.2px;" transform="translate(5,244.5)" y="0" x="0" id="text-entity-dboRequest-657aff0b-e7f1-57d0-ab3d-651704502ecf-attr-11-type" class="er entityLabel">datetime</text><rect height="21" width="111.819091796875" y="234" x="91.56460571289062" class="er attributeBoxOdd"></rect><text style="dominant-baseline: middle; font-size: 10.2px;" transform="translate(96.56460571289062,244.5)" y="0" x="0" id="text-entity-dboRequest-657aff0b-e7f1-57d0-ab3d-651704502ecf-attr-11-name" class="er entityLabel">Logged_Date</text><rect height="21" width="24.803314208984375" y="234" x="203.38369750976562" class="er attributeBoxOdd"></rect><text style="dominant-baseline: middle; font-size: 10.2px;" transform="translate(208.38369750976562,244.5)" y="0" x="0" id="text-entity-dboRequest-657aff0b-e7f1-57d0-ab3d-651704502ecf-attr-11-comment" class="er entityLabel"></text><rect height="21" width="91.56460571289062" y="255" x="0" class="er attributeBoxEven"></rect><text style="dominant-baseline: middle; font-size: 10.2px;" transform="translate(5,265.5)" y="0" x="0" id="text-entity-dboRequest-657aff0b-e7f1-57d0-ab3d-651704502ecf-attr-12-type" class="er entityLabel">datetime</text><rect height="21" width="111.819091796875" y="255" x="91.56460571289062" class="er attributeBoxEven"></rect><text style="dominant-baseline: middle; font-size: 10.2px;" transform="translate(96.56460571289062,265.5)" y="0" x="0" id="text-entity-dboRequest-657aff0b-e7f1-57d0-ab3d-651704502ecf-attr-12-name" class="er entityLabel">Request_State_Date</text><rect height="21" width="24.803314208984375" y="255" x="203.38369750976562" class="er attributeBoxEven"></rect><text style="dominant-baseline: middle; font-size: 10.2px;" transform="translate(208.38369750976562,265.5)" y="0" x="0" id="text-entity-dboRequest-657aff0b-e7f1-57d0-ab3d-651704502ecf-attr-12-comment" class="er entityLabel"></text><rect height="21" width="91.56460571289062" y="276" x="0" class="er attributeBoxOdd"></rect><text style="dominant-baseline: middle; font-size: 10.2px;" transform="translate(5,286.5)" y="0" x="0" id="text-entity-dboRequest-657aff0b-e7f1-57d0-ab3d-651704502ecf-attr-13-type" class="er entityLabel">uniqueidentifier</text><rect height="21" width="111.819091796875" y="276" x="91.56460571289062" class="er attributeBoxOdd"></rect><text style="dominant-baseline: middle; font-size: 10.2px;" transform="translate(96.56460571289062,286.5)" y="0" x="0" id="text-entity-dboRequest-657aff0b-e7f1-57d0-ab3d-651704502ecf-attr-13-name" class="er entityLabel">Sponsor_ID</text><rect height="21" width="24.803314208984375" y="276" x="203.38369750976562" class="er attributeBoxOdd"></rect><text style="dominant-baseline: middle; font-size: 10.2px;" transform="translate(208.38369750976562,286.5)" y="0" x="0" id="text-entity-dboRequest-657aff0b-e7f1-57d0-ab3d-651704502ecf-attr-13-comment" class="er entityLabel">FK</text><rect height="21" width="91.56460571289062" y="297" x="0" class="er attributeBoxEven"></rect><text style="dominant-baseline: middle; font-size: 10.2px;" transform="translate(5,307.5)" y="0" x="0" id="text-entity-dboRequest-657aff0b-e7f1-57d0-ab3d-651704502ecf-attr-14-type" class="er entityLabel">text(2147483647)</text><rect height="21" width="111.819091796875" y="297" x="91.56460571289062" class="er attributeBoxEven"></rect><text style="dominant-baseline: middle; font-size: 10.2px;" transform="translate(96.56460571289062,307.5)" y="0" x="0" id="text-entity-dboRequest-657aff0b-e7f1-57d0-ab3d-651704502ecf-attr-14-name" class="er entityLabel">Attachment_URL</text><rect height="21" width="24.803314208984375" y="297" x="203.38369750976562" class="er attributeBoxEven"></rect><text style="dominant-baseline: middle; font-size: 10.2px;" transform="translate(208.38369750976562,307.5)" y="0" x="0" id="text-entity-dboRequest-657aff0b-e7f1-57d0-ab3d-651704502ecf-attr-14-comment" class="er entityLabel"></text><rect height="21" width="91.56460571289062" y="318" x="0" class="er attributeBoxOdd"></rect><text style="dominant-baseline: middle; font-size: 10.2px;" transform="translate(5,328.5)" y="0" x="0" id="text-entity-dboRequest-657aff0b-e7f1-57d0-ab3d-651704502ecf-attr-15-type" class="er entityLabel">nvarchar(255)</text><rect height="21" width="111.819091796875" y="318" x="91.56460571289062" class="er attributeBoxOdd"></rect><text style="dominant-baseline: middle; font-size: 10.2px;" transform="translate(96.56460571289062,328.5)" y="0" x="0" id="text-entity-dboRequest-657aff0b-e7f1-57d0-ab3d-651704502ecf-attr-15-name" class="er entityLabel">Ticket_ID</text><rect height="21" width="24.803314208984375" y="318" x="203.38369750976562" class="er attributeBoxOdd"></rect><text style="dominant-baseline: middle; font-size: 10.2px;" transform="translate(208.38369750976562,328.5)" y="0" x="0" id="text-entity-dboRequest-657aff0b-e7f1-57d0-ab3d-651704502ecf-attr-15-comment" class="er entityLabel"></text><rect height="21" width="91.56460571289062" y="339" x="0" class="er attributeBoxEven"></rect><text style="dominant-baseline: middle; font-size: 10.2px;" transform="translate(5,349.5)" y="0" x="0" id="text-entity-dboRequest-657aff0b-e7f1-57d0-ab3d-651704502ecf-attr-16-type" class="er entityLabel">int</text><rect height="21" width="111.819091796875" y="339" x="91.56460571289062" class="er attributeBoxEven"></rect><text style="dominant-baseline: middle; font-size: 10.2px;" transform="translate(96.56460571289062,349.5)" y="0" x="0" id="text-entity-dboRequest-657aff0b-e7f1-57d0-ab3d-651704502ecf-attr-16-name" class="er entityLabel">Request_Status</text><rect height="21" width="24.803314208984375" y="339" x="203.38369750976562" class="er attributeBoxEven"></rect><text style="dominant-baseline: middle; font-size: 10.2px;" transform="translate(208.38369750976562,349.5)" y="0" x="0" id="text-entity-dboRequest-657aff0b-e7f1-57d0-ab3d-651704502ecf-attr-16-comment" class="er entityLabel"></text></g><g transform="translate(20,20 )" id="entity-dboImplementationPlan-b439a5fd-c734-584d-8326-b35a660d5f03"><rect height="192" width="216.12255859375" y="0" x="0" class="er entityBox"></rect><text style="dominant-baseline: middle; text-anchor: middle; font-size: 12px;" transform="translate(108.061279296875,12)" y="0" x="0" id="text-entity-dboImplementationPlan-b439a5fd-c734-584d-8326-b35a660d5f03" class="er entityLabel">dbo.ImplementationPlan</text><rect height="21" width="91.56460571289062" y="24" x="0" class="er attributeBoxOdd"></rect><text style="dominant-baseline: middle; font-size: 10.2px;" transform="translate(5,34.5)" y="0" x="0" id="text-entity-dboImplementationPlan-b439a5fd-c734-584d-8326-b35a660d5f03-attr-1-type" class="er entityLabel">int</text><rect height="21" width="99.754638671875" y="24" x="91.56460571289062" class="er attributeBoxOdd"></rect><text style="dominant-baseline: middle; font-size: 10.2px;" transform="translate(96.56460571289062,34.5)" y="0" x="0" id="text-entity-dboImplementationPlan-b439a5fd-c734-584d-8326-b35a660d5f03-attr-1-name" class="er entityLabel">Plan_ID</text><rect height="21" width="24.803314208984375" y="24" x="191.31924438476562" class="er attributeBoxOdd"></rect><text style="dominant-baseline: middle; font-size: 10.2px;" transform="translate(196.31924438476562,34.5)" y="0" x="0" id="text-entity-dboImplementationPlan-b439a5fd-c734-584d-8326-b35a660d5f03-attr-1-comment" class="er entityLabel">PK</text><rect height="21" width="91.56460571289062" y="45" x="0" class="er attributeBoxEven"></rect><text style="dominant-baseline: middle; font-size: 10.2px;" transform="translate(5,55.5)" y="0" x="0" id="text-entity-dboImplementationPlan-b439a5fd-c734-584d-8326-b35a660d5f03-attr-2-type" class="er entityLabel">int</text><rect height="21" width="99.754638671875" y="45" x="91.56460571289062" class="er attributeBoxEven"></rect><text style="dominant-baseline: middle; font-size: 10.2px;" transform="translate(96.56460571289062,55.5)" y="0" x="0" id="text-entity-dboImplementationPlan-b439a5fd-c734-584d-8326-b35a660d5f03-attr-2-name" class="er entityLabel">Request_ID</text><rect height="21" width="24.803314208984375" y="45" x="191.31924438476562" class="er attributeBoxEven"></rect><text style="dominant-baseline: middle; font-size: 10.2px;" transform="translate(196.31924438476562,55.5)" y="0" x="0" id="text-entity-dboImplementationPlan-b439a5fd-c734-584d-8326-b35a660d5f03-attr-2-comment" class="er entityLabel">FK</text><rect height="21" width="91.56460571289062" y="66" x="0" class="er attributeBoxOdd"></rect><text style="dominant-baseline: middle; font-size: 10.2px;" transform="translate(5,76.5)" y="0" x="0" id="text-entity-dboImplementationPlan-b439a5fd-c734-584d-8326-b35a660d5f03-attr-3-type" class="er entityLabel">nvarchar(255)</text><rect height="21" width="99.754638671875" y="66" x="91.56460571289062" class="er attributeBoxOdd"></rect><text style="dominant-baseline: middle; font-size: 10.2px;" transform="translate(96.56460571289062,76.5)" y="0" x="0" id="text-entity-dboImplementationPlan-b439a5fd-c734-584d-8326-b35a660d5f03-attr-3-name" class="er entityLabel">Task_Title</text><rect height="21" width="24.803314208984375" y="66" x="191.31924438476562" class="er attributeBoxOdd"></rect><text style="dominant-baseline: middle; font-size: 10.2px;" transform="translate(196.31924438476562,76.5)" y="0" x="0" id="text-entity-dboImplementationPlan-b439a5fd-c734-584d-8326-b35a660d5f03-attr-3-comment" class="er entityLabel"></text><rect height="21" width="91.56460571289062" y="87" x="0" class="er attributeBoxEven"></rect><text style="dominant-baseline: middle; font-size: 10.2px;" transform="translate(5,97.5)" y="0" x="0" id="text-entity-dboImplementationPlan-b439a5fd-c734-584d-8326-b35a660d5f03-attr-4-type" class="er entityLabel">int</text><rect height="21" width="99.754638671875" y="87" x="91.56460571289062" class="er attributeBoxEven"></rect><text style="dominant-baseline: middle; font-size: 10.2px;" transform="translate(96.56460571289062,97.5)" y="0" x="0" id="text-entity-dboImplementationPlan-b439a5fd-c734-584d-8326-b35a660d5f03-attr-4-name" class="er entityLabel">Task_Team</text><rect height="21" width="24.803314208984375" y="87" x="191.31924438476562" class="er attributeBoxEven"></rect><text style="dominant-baseline: middle; font-size: 10.2px;" transform="translate(196.31924438476562,97.5)" y="0" x="0" id="text-entity-dboImplementationPlan-b439a5fd-c734-584d-8326-b35a660d5f03-attr-4-comment" class="er entityLabel"></text><rect height="21" width="91.56460571289062" y="108" x="0" class="er attributeBoxOdd"></rect><text style="dominant-baseline: middle; font-size: 10.2px;" transform="translate(5,118.5)" y="0" x="0" id="text-entity-dboImplementationPlan-b439a5fd-c734-584d-8326-b35a660d5f03-attr-5-type" class="er entityLabel">text(2147483647)</text><rect height="21" width="99.754638671875" y="108" x="91.56460571289062" class="er attributeBoxOdd"></rect><text style="dominant-baseline: middle; font-size: 10.2px;" transform="translate(96.56460571289062,118.5)" y="0" x="0" id="text-entity-dboImplementationPlan-b439a5fd-c734-584d-8326-b35a660d5f03-attr-5-name" class="er entityLabel">Task_Description</text><rect height="21" width="24.803314208984375" y="108" x="191.31924438476562" class="er attributeBoxOdd"></rect><text style="dominant-baseline: middle; font-size: 10.2px;" transform="translate(196.31924438476562,118.5)" y="0" x="0" id="text-entity-dboImplementationPlan-b439a5fd-c734-584d-8326-b35a660d5f03-attr-5-comment" class="er entityLabel"></text><rect height="21" width="91.56460571289062" y="129" x="0" class="er attributeBoxEven"></rect><text style="dominant-baseline: middle; font-size: 10.2px;" transform="translate(5,139.5)" y="0" x="0" id="text-entity-dboImplementationPlan-b439a5fd-c734-584d-8326-b35a660d5f03-attr-6-type" class="er entityLabel">int</text><rect height="21" width="99.754638671875" y="129" x="91.56460571289062" class="er attributeBoxEven"></rect><text style="dominant-baseline: middle; font-size: 10.2px;" transform="translate(96.56460571289062,139.5)" y="0" x="0" id="text-entity-dboImplementationPlan-b439a5fd-c734-584d-8326-b35a660d5f03-attr-6-name" class="er entityLabel">Impact_Tag</text><rect height="21" width="24.803314208984375" y="129" x="191.31924438476562" class="er attributeBoxEven"></rect><text style="dominant-baseline: middle; font-size: 10.2px;" transform="translate(196.31924438476562,139.5)" y="0" x="0" id="text-entity-dboImplementationPlan-b439a5fd-c734-584d-8326-b35a660d5f03-attr-6-comment" class="er entityLabel"></text><rect height="21" width="91.56460571289062" y="150" x="0" class="er attributeBoxOdd"></rect><text style="dominant-baseline: middle; font-size: 10.2px;" transform="translate(5,160.5)" y="0" x="0" id="text-entity-dboImplementationPlan-b439a5fd-c734-584d-8326-b35a660d5f03-attr-7-type" class="er entityLabel">datetime</text><rect height="21" width="99.754638671875" y="150" x="91.56460571289062" class="er attributeBoxOdd"></rect><text style="dominant-baseline: middle; font-size: 10.2px;" transform="translate(96.56460571289062,160.5)" y="0" x="0" id="text-entity-dboImplementationPlan-b439a5fd-c734-584d-8326-b35a660d5f03-attr-7-name" class="er entityLabel">Change_Task_Start</text><rect height="21" width="24.803314208984375" y="150" x="191.31924438476562" class="er attributeBoxOdd"></rect><text style="dominant-baseline: middle; font-size: 10.2px;" transform="translate(196.31924438476562,160.5)" y="0" x="0" id="text-entity-dboImplementationPlan-b439a5fd-c734-584d-8326-b35a660d5f03-attr-7-comment" class="er entityLabel"></text><rect height="21" width="91.56460571289062" y="171" x="0" class="er attributeBoxEven"></rect><text style="dominant-baseline: middle; font-size: 10.2px;" transform="translate(5,181.5)" y="0" x="0" id="text-entity-dboImplementationPlan-b439a5fd-c734-584d-8326-b35a660d5f03-attr-8-type" class="er entityLabel">datetime</text><rect height="21" width="99.754638671875" y="171" x="91.56460571289062" class="er attributeBoxEven"></rect><text style="dominant-baseline: middle; font-size: 10.2px;" transform="translate(96.56460571289062,181.5)" y="0" x="0" id="text-entity-dboImplementationPlan-b439a5fd-c734-584d-8326-b35a660d5f03-attr-8-name" class="er entityLabel">Change_Task_End</text><rect height="21" width="24.803314208984375" y="171" x="191.31924438476562" class="er attributeBoxEven"></rect><text style="dominant-baseline: middle; font-size: 10.2px;" transform="translate(196.31924438476562,181.5)" y="0" x="0" id="text-entity-dboImplementationPlan-b439a5fd-c734-584d-8326-b35a660d5f03-attr-8-comment" class="er entityLabel"></text></g><g transform="translate(336.12255859375,51.5 )" id="entity-dboRequestComments-caaffdeb-2922-5912-9e5a-dd01ca1ebfc8"><rect height="129" width="203.64651489257812" y="0" x="0" class="er entityBox"></rect><text style="dominant-baseline: middle; text-anchor: middle; font-size: 12px;" transform="translate(101.82325744628906,12)" y="0" x="0" id="text-entity-dboRequestComments-caaffdeb-2922-5912-9e5a-dd01ca1ebfc8" class="er entityLabel">dbo.RequestComments</text><rect height="21" width="91.56460571289062" y="24" x="0" class="er attributeBoxOdd"></rect><text style="dominant-baseline: middle; font-size: 10.2px;" transform="translate(5,34.5)" y="0" x="0" id="text-entity-dboRequestComments-caaffdeb-2922-5912-9e5a-dd01ca1ebfc8-attr-1-type" class="er entityLabel">int</text><rect height="21" width="87.27859497070312" y="24" x="91.56460571289062" class="er attributeBoxOdd"></rect><text style="dominant-baseline: middle; font-size: 10.2px;" transform="translate(96.56460571289062,34.5)" y="0" x="0" id="text-entity-dboRequestComments-caaffdeb-2922-5912-9e5a-dd01ca1ebfc8-attr-1-name" class="er entityLabel">Comment_ID</text><rect height="21" width="24.803314208984375" y="24" x="178.84320068359375" class="er attributeBoxOdd"></rect><text style="dominant-baseline: middle; font-size: 10.2px;" transform="translate(183.84320068359375,34.5)" y="0" x="0" id="text-entity-dboRequestComments-caaffdeb-2922-5912-9e5a-dd01ca1ebfc8-attr-1-comment" class="er entityLabel">PK</text><rect height="21" width="91.56460571289062" y="45" x="0" class="er attributeBoxEven"></rect><text style="dominant-baseline: middle; font-size: 10.2px;" transform="translate(5,55.5)" y="0" x="0" id="text-entity-dboRequestComments-caaffdeb-2922-5912-9e5a-dd01ca1ebfc8-attr-2-type" class="er entityLabel">int</text><rect height="21" width="87.27859497070312" y="45" x="91.56460571289062" class="er attributeBoxEven"></rect><text style="dominant-baseline: middle; font-size: 10.2px;" transform="translate(96.56460571289062,55.5)" y="0" x="0" id="text-entity-dboRequestComments-caaffdeb-2922-5912-9e5a-dd01ca1ebfc8-attr-2-name" class="er entityLabel">Request_ID</text><rect height="21" width="24.803314208984375" y="45" x="178.84320068359375" class="er attributeBoxEven"></rect><text style="dominant-baseline: middle; font-size: 10.2px;" transform="translate(183.84320068359375,55.5)" y="0" x="0" id="text-entity-dboRequestComments-caaffdeb-2922-5912-9e5a-dd01ca1ebfc8-attr-2-comment" class="er entityLabel">FK</text><rect height="21" width="91.56460571289062" y="66" x="0" class="er attributeBoxOdd"></rect><text style="dominant-baseline: middle; font-size: 10.2px;" transform="translate(5,76.5)" y="0" x="0" id="text-entity-dboRequestComments-caaffdeb-2922-5912-9e5a-dd01ca1ebfc8-attr-3-type" class="er entityLabel">datetime</text><rect height="21" width="87.27859497070312" y="66" x="91.56460571289062" class="er attributeBoxOdd"></rect><text style="dominant-baseline: middle; font-size: 10.2px;" transform="translate(96.56460571289062,76.5)" y="0" x="0" id="text-entity-dboRequestComments-caaffdeb-2922-5912-9e5a-dd01ca1ebfc8-attr-3-name" class="er entityLabel">Comment_Date</text><rect height="21" width="24.803314208984375" y="66" x="178.84320068359375" class="er attributeBoxOdd"></rect><text style="dominant-baseline: middle; font-size: 10.2px;" transform="translate(183.84320068359375,76.5)" y="0" x="0" id="text-entity-dboRequestComments-caaffdeb-2922-5912-9e5a-dd01ca1ebfc8-attr-3-comment" class="er entityLabel"></text><rect height="21" width="91.56460571289062" y="87" x="0" class="er attributeBoxEven"></rect><text style="dominant-baseline: middle; font-size: 10.2px;" transform="translate(5,97.5)" y="0" x="0" id="text-entity-dboRequestComments-caaffdeb-2922-5912-9e5a-dd01ca1ebfc8-attr-4-type" class="er entityLabel">text(2147483647)</text><rect height="21" width="87.27859497070312" y="87" x="91.56460571289062" class="er attributeBoxEven"></rect><text style="dominant-baseline: middle; font-size: 10.2px;" transform="translate(96.56460571289062,97.5)" y="0" x="0" id="text-entity-dboRequestComments-caaffdeb-2922-5912-9e5a-dd01ca1ebfc8-attr-4-name" class="er entityLabel">Comment</text><rect height="21" width="24.803314208984375" y="87" x="178.84320068359375" class="er attributeBoxEven"></rect><text style="dominant-baseline: middle; font-size: 10.2px;" transform="translate(183.84320068359375,97.5)" y="0" x="0" id="text-entity-dboRequestComments-caaffdeb-2922-5912-9e5a-dd01ca1ebfc8-attr-4-comment" class="er entityLabel"></text><rect height="21" width="91.56460571289062" y="108" x="0" class="er attributeBoxOdd"></rect><text style="dominant-baseline: middle; font-size: 10.2px;" transform="translate(5,118.5)" y="0" x="0" id="text-entity-dboRequestComments-caaffdeb-2922-5912-9e5a-dd01ca1ebfc8-attr-5-type" class="er entityLabel">bit</text><rect height="21" width="87.27859497070312" y="108" x="91.56460571289062" class="er attributeBoxOdd"></rect><text style="dominant-baseline: middle; font-size: 10.2px;" transform="translate(96.56460571289062,118.5)" y="0" x="0" id="text-entity-dboRequestComments-caaffdeb-2922-5912-9e5a-dd01ca1ebfc8-attr-5-name" class="er entityLabel">Notification_Sent</text><rect height="21" width="24.803314208984375" y="108" x="178.84320068359375" class="er attributeBoxOdd"></rect><text style="dominant-baseline: middle; font-size: 10.2px;" transform="translate(183.84320068359375,118.5)" y="0" x="0" id="text-entity-dboRequestComments-caaffdeb-2922-5912-9e5a-dd01ca1ebfc8-attr-5-comment" class="er entityLabel"></text></g><g transform="translate(652.9714851379395,51.5 )" id="entity-dboApprovals-fa9901f0-7221-50dd-adba-5472184bb9f8"><rect height="129" width="171.73085021972656" y="0" x="0" class="er entityBox"></rect><text style="dominant-baseline: middle; text-anchor: middle; font-size: 12px;" transform="translate(85.86542510986328,12)" y="0" x="0" id="text-entity-dboApprovals-fa9901f0-7221-50dd-adba-5472184bb9f8" class="er entityLabel">dbo.Approvals</text><rect height="21" width="79.78691101074219" y="24" x="0" class="er attributeBoxOdd"></rect><text style="dominant-baseline: middle; font-size: 10.2px;" transform="translate(5,34.5)" y="0" x="0" id="text-entity-dboApprovals-fa9901f0-7221-50dd-adba-5472184bb9f8-attr-1-type" class="er entityLabel">int</text><rect height="21" width="67.140625" y="24" x="79.78691101074219" class="er attributeBoxOdd"></rect><text style="dominant-baseline: middle; font-size: 10.2px;" transform="translate(84.78691101074219,34.5)" y="0" x="0" id="text-entity-dboApprovals-fa9901f0-7221-50dd-adba-5472184bb9f8-attr-1-name" class="er entityLabel">Approval_ID</text><rect height="21" width="24.803314208984375" y="24" x="146.9275360107422" class="er attributeBoxOdd"></rect><text style="dominant-baseline: middle; font-size: 10.2px;" transform="translate(151.9275360107422,34.5)" y="0" x="0" id="text-entity-dboApprovals-fa9901f0-7221-50dd-adba-5472184bb9f8-attr-1-comment" class="er entityLabel">PK</text><rect height="21" width="79.78691101074219" y="45" x="0" class="er attributeBoxEven"></rect><text style="dominant-baseline: middle; font-size: 10.2px;" transform="translate(5,55.5)" y="0" x="0" id="text-entity-dboApprovals-fa9901f0-7221-50dd-adba-5472184bb9f8-attr-2-type" class="er entityLabel">int</text><rect height="21" width="67.140625" y="45" x="79.78691101074219" class="er attributeBoxEven"></rect><text style="dominant-baseline: middle; font-size: 10.2px;" transform="translate(84.78691101074219,55.5)" y="0" x="0" id="text-entity-dboApprovals-fa9901f0-7221-50dd-adba-5472184bb9f8-attr-2-name" class="er entityLabel">Request_ID</text><rect height="21" width="24.803314208984375" y="45" x="146.9275360107422" class="er attributeBoxEven"></rect><text style="dominant-baseline: middle; font-size: 10.2px;" transform="translate(151.9275360107422,55.5)" y="0" x="0" id="text-entity-dboApprovals-fa9901f0-7221-50dd-adba-5472184bb9f8-attr-2-comment" class="er entityLabel">FK</text><rect height="21" width="79.78691101074219" y="66" x="0" class="er attributeBoxOdd"></rect><text style="dominant-baseline: middle; font-size: 10.2px;" transform="translate(5,76.5)" y="0" x="0" id="text-entity-dboApprovals-fa9901f0-7221-50dd-adba-5472184bb9f8-attr-3-type" class="er entityLabel">bit</text><rect height="21" width="67.140625" y="66" x="79.78691101074219" class="er attributeBoxOdd"></rect><text style="dominant-baseline: middle; font-size: 10.2px;" transform="translate(84.78691101074219,76.5)" y="0" x="0" id="text-entity-dboApprovals-fa9901f0-7221-50dd-adba-5472184bb9f8-attr-3-name" class="er entityLabel">Status</text><rect height="21" width="24.803314208984375" y="66" x="146.9275360107422" class="er attributeBoxOdd"></rect><text style="dominant-baseline: middle; font-size: 10.2px;" transform="translate(151.9275360107422,76.5)" y="0" x="0" id="text-entity-dboApprovals-fa9901f0-7221-50dd-adba-5472184bb9f8-attr-3-comment" class="er entityLabel"></text><rect height="21" width="79.78691101074219" y="87" x="0" class="er attributeBoxEven"></rect><text style="dominant-baseline: middle; font-size: 10.2px;" transform="translate(5,97.5)" y="0" x="0" id="text-entity-dboApprovals-fa9901f0-7221-50dd-adba-5472184bb9f8-attr-4-type" class="er entityLabel">datetime</text><rect height="21" width="67.140625" y="87" x="79.78691101074219" class="er attributeBoxEven"></rect><text style="dominant-baseline: middle; font-size: 10.2px;" transform="translate(84.78691101074219,97.5)" y="0" x="0" id="text-entity-dboApprovals-fa9901f0-7221-50dd-adba-5472184bb9f8-attr-4-name" class="er entityLabel">Date</text><rect height="21" width="24.803314208984375" y="87" x="146.9275360107422" class="er attributeBoxEven"></rect><text style="dominant-baseline: middle; font-size: 10.2px;" transform="translate(151.9275360107422,97.5)" y="0" x="0" id="text-entity-dboApprovals-fa9901f0-7221-50dd-adba-5472184bb9f8-attr-4-comment" class="er entityLabel"></text><rect height="21" width="79.78691101074219" y="108" x="0" class="er attributeBoxOdd"></rect><text style="dominant-baseline: middle; font-size: 10.2px;" transform="translate(5,118.5)" y="0" x="0" id="text-entity-dboApprovals-fa9901f0-7221-50dd-adba-5472184bb9f8-attr-5-type" class="er entityLabel">uniqueidentifier</text><rect height="21" width="67.140625" y="108" x="79.78691101074219" class="er attributeBoxOdd"></rect><text style="dominant-baseline: middle; font-size: 10.2px;" transform="translate(84.78691101074219,118.5)" y="0" x="0" id="text-entity-dboApprovals-fa9901f0-7221-50dd-adba-5472184bb9f8-attr-5-name" class="er entityLabel">User_ID</text><rect height="21" width="24.803314208984375" y="108" x="146.9275360107422" class="er attributeBoxOdd"></rect><text style="dominant-baseline: middle; font-size: 10.2px;" transform="translate(151.9275360107422,118.5)" y="0" x="0" id="text-entity-dboApprovals-fa9901f0-7221-50dd-adba-5472184bb9f8-attr-5-comment" class="er entityLabel">FK</text></g><rect height="14" width="44.34375" y="723.4069213867188" x="445.5468444824219" class="er relationshipLabelBox"></rect><text style="text-anchor: middle; dominant-baseline: middle; font-size: 12px;" y="730.4069213867188" x="467.7187194824219" id="rel1" class="er relationshipLabel">User_ID</text><rect height="14" width="44.34375" y="723.4069213867188" x="445.5468444824219" class="er relationshipLabelBox"></rect><text style="text-anchor: middle; dominant-baseline: middle; font-size: 12px;" y="730.4069213867188" x="467.7187194824219" id="rel2" class="er relationshipLabel">User_ID</text><rect height="14" width="63.703125" y="316.5047912597656" x="185.13436889648438" class="er relationshipLabelBox"></rect><text style="text-anchor: middle; dominant-baseline: middle; font-size: 12px;" y="323.5047912597656" x="216.98593139648438" id="rel3" class="er relationshipLabel">Request_ID</text><rect height="14" width="63.703125" y="239.27792358398438" x="406.384521484375" class="er relationshipLabelBox"></rect><text style="text-anchor: middle; dominant-baseline: middle; font-size: 12px;" y="246.27792358398438" x="438.236083984375" id="rel4" class="er relationshipLabel">Request_ID</text><rect height="14" width="63.703125" y="264.32867431640625" x="603.1665649414062" class="er relationshipLabelBox"></rect><text style="text-anchor: middle; dominant-baseline: middle; font-size: 12px;" y="271.32867431640625" x="635.0181274414062" id="rel5" class="er relationshipLabel">Request_ID</text><rect height="14" width="44.34375" y="484.7190856933594" x="766.6650390625" class="er relationshipLabelBox"></rect><text style="text-anchor: middle; dominant-baseline: middle; font-size: 12px;" y="491.7190856933594" x="788.8369140625" id="rel6" class="er relationshipLabel">User_ID</text></svg>